<svg aria-hidden="true" style="position: absolute; width: 0; height: 0; overflow: hidden;" version="1.1" xmlns="http://www.w3.org/2000/svg" xmlns:xlink="http://www.w3.org/1999/xlink">
<defs>
<symbol id="icon-Vector-4" viewBox="0 0 53 32">
<path stroke-linejoin="miter" stroke-linecap="butt" stroke-miterlimit="4" stroke-width="5.333" d="M50.927 28.874s-7.279-1.753-13.519-7.013-11.439-14.026-11.439-14.026-5.2 8.766-11.439 14.026-13.519 7.013-13.519 7.013"></path>
</symbol>
<symbol id="icon-Vector-3" viewBox="0 0 48 32">
<path stroke-linejoin="miter" stroke-linecap="butt" stroke-miterlimit="4" stroke-width="5.333" d="M45.333 2.667s-6.222 1.778-11.555 7.111-9.778 14.222-9.778 14.222-4.444-8.889-9.778-14.222-11.556-7.111-11.556-7.111"></path>
</symbol>
<symbol id="icon-Star-8" viewBox="0 0 32 32">
<path d="M16 0l1.236 12.196 8.168-9.14-6.169 10.593 11.981-2.593-11.217 4.944 11.217 4.944-11.981-2.593 6.168 10.593-8.169-9.14-1.236 12.196-1.236-12.196-8.168 9.14 6.168-10.593-11.981 2.593 11.217-4.944-11.217-4.944 11.981 2.593-6.168-10.593 8.168 9.14 1.236-12.196z"></path>
</symbol>
<symbol id="icon-Star-5" viewBox="0 0 32 32">
<path d="M16.107 0l1.172 10.593 5.379-9.2-3.238 10.154 8.656-6.217-7.088 7.959 10.437-2.159-9.712 4.388 10.412 2.273-10.657 0.058 8.588 6.312-9.76-4.281 5.278 9.259-7.175-7.881 1.056 10.605-3.349-10.118-3.349 10.118 1.056-10.605-7.175 7.881 5.278-9.259-9.76 4.281 8.588-6.312-10.658-0.058 10.412-2.273-9.712-4.388 10.437 2.159-7.088-7.959 8.656 6.217-3.238-10.154 5.379 9.2 1.172-10.593z"></path>
</symbol>
<symbol id="icon-Polygon-7" viewBox="0 0 32 32">
<path d="M16 0l11.314 4.686 4.686 11.314-4.686 11.314-11.314 4.686-11.314-4.686-4.686-11.314 4.686-11.314 11.314-4.686z"></path>
</symbol>
<symbol id="icon-menu" viewBox="0 0 118 32">
<path d="M0.066 0h118.333v3.2h-118.333v-3.2zM0.066 28.8h118.333v3.2h-118.333v-3.2z"></path>
</symbol>
<symbol id="icon-icon" viewBox="0 0 32 32">
<path d="M4.583 14.687c-0.728-0.104-1.282-0.724-1.282-1.473 0-0.136 0.018-0.267 0.052-0.392l-0.002 0.010c0.161-0.594 0.695-1.023 1.329-1.023 0.189 0 0.37 0.038 0.534 0.107l-0.009-0.003 10.51 4.317-11.133-1.543zM17.181 5.128c0.099-0.741 0.727-1.306 1.487-1.306 0.139 0 0.274 0.019 0.402 0.055l-0.011-0.002c0.606 0.169 1.043 0.715 1.043 1.365 0 0.192-0.038 0.376-0.108 0.543l0.003-0.009-4.276 10.436 1.458-11.080z"></path>
<path d="M8.963 7.266c-0.193-0.249-0.31-0.565-0.31-0.909 0-0.546 0.293-1.023 0.731-1.282l0.007-0.004c0.198-0.114 0.435-0.182 0.688-0.182 0.578 0 1.074 0.351 1.286 0.852l0.003 0.009 4.395 10.449-6.8-8.934zM24.658 9.394c0.248-0.188 0.561-0.301 0.901-0.301 0.555 0 1.039 0.301 1.298 0.749l0.004 0.007c0.121 0.202 0.192 0.445 0.192 0.705 0 0.574-0.347 1.067-0.843 1.28l-0.009 0.003-10.438 4.339 8.895-6.784zM26.833 17.745c0.728 0.104 1.282 0.724 1.282 1.473 0 0.136-0.018 0.267-0.052 0.392l0.002-0.010c-0.161 0.594-0.695 1.023-1.329 1.023-0.189 0-0.37-0.038-0.534-0.107l0.009 0.003-10.51-4.317 11.133 1.543zM14.235 27.303c-0.099 0.741-0.727 1.306-1.487 1.306-0.14 0-0.275-0.019-0.403-0.055l0.011 0.003c-0.606-0.169-1.043-0.715-1.043-1.365 0-0.192 0.038-0.376 0.108-0.543l-0.003 0.009 4.276-10.436-1.458 11.080z"></path>
<path d="M22.545 25.117c0.547 0.719 0.346 1.75-0.428 2.195-0.198 0.114-0.435 0.182-0.688 0.182-0.578 0-1.074-0.351-1.286-0.852l-0.003-0.009-4.395-10.449 6.801 8.934zM6.85 22.985c-0.248 0.188-0.561 0.301-0.901 0.301-0.555 0-1.039-0.301-1.298-0.749l-0.004-0.007c-0.121-0.202-0.192-0.445-0.192-0.705 0-0.574 0.347-1.067 0.843-1.28l0.009-0.003 10.438-4.339-8.895 6.784z"></path>
</symbol>
<symbol id="icon-close" viewBox="0 0 32 32">
<path d="M0.78 0.005l31.21 31.21-0.78 0.78-31.21-31.21 0.78-0.78z"></path>
<path d="M31.211 0.005l-31.21 31.21 0.78 0.78 31.21-31.21-0.78-0.78z"></path>
</symbol>
<symbol id="icon-star" viewBox="0 0 32 32">
<path d="M15.714 4.889l1.179 9.933 9.933 1.179-9.933 1.179-1.178 9.933-1.179-9.933-9.933-1.178 9.933-1.179 1.179-9.933z"></path>
<path d="M7.857 8.143l7.857 6.19 7.857-6.19-6.19 7.857 6.19 7.857-7.857-6.19-7.857 6.19 6.19-7.857-6.19-7.857z"></path>
</symbol>
</defs>
</svg>
